<svg width="99" height="66" viewBox="0 0 99 66" fill="none" xmlns="http://www.w3.org/2000/svg">
<path d="M64.3313 37.5267C65.1893 38.2807 66.0993 38.5407 66.8273 38.5407C67.8153 38.5407 68.6473 37.7607 69.3233 36.1487L69.6873 35.3427L65.6053 26.0087C65.0593 24.7607 64.3833 24.0327 63.8113 23.9807V23.6167H69.7393V23.9807C68.8553 24.0327 68.3873 24.3707 68.3873 24.9167C68.3873 25.0987 68.4393 25.3067 68.5433 25.5407L71.1953 31.8587L73.5613 26.4247C73.8473 25.8267 73.9773 25.3587 73.9773 25.0207C73.9773 24.3187 73.4833 24.0587 72.5213 23.9807V23.6167H76.3953V23.9807C75.6933 24.0847 75.0693 24.7087 74.2113 26.5287L69.9733 36.2527C68.4653 39.6327 67.1913 40.9327 65.1113 40.9327C64.6433 40.9327 64.0973 40.7767 63.4473 40.4647L64.3313 37.5267Z" fill="white"/>
<path d="M58.6049 26.9864C59.2549 24.7244 60.6329 23.3204 62.1149 23.3204C62.4529 23.3204 62.8169 23.3984 63.1809 23.5804L62.9469 26.2064C62.5049 25.8684 61.9329 25.6864 61.3609 25.6864C60.0089 25.6864 58.6309 26.7264 58.6049 29.3264V33.7204C58.6049 34.6044 59.2289 34.9944 60.7109 35.1244V35.4884H54.3669V35.1244C55.3809 34.9684 55.7709 34.5784 55.7709 33.7204V26.2064C55.7709 25.3484 55.4329 24.9064 54.5229 24.8284L54.2109 24.8024V24.4384L58.6049 23.2944V26.9864Z" fill="white"/>
<path d="M47.1413 35.8524C43.6313 35.8524 41.2393 33.3044 41.2393 29.5864C41.2393 25.8424 43.6313 23.2944 47.1413 23.2944C50.6773 23.2944 53.0693 25.8424 53.0693 29.5864C53.0693 33.3044 50.6773 35.8524 47.1413 35.8524ZM44.2553 29.5864C44.2553 33.2004 45.3213 35.2024 47.1413 35.2024C48.9873 35.2024 50.0533 33.2004 50.0533 29.5864C50.0533 25.9724 48.9873 23.9444 47.1413 23.9444C45.3213 23.9444 44.2553 25.9724 44.2553 29.5864Z" fill="white"/>
<path d="M40.3977 34.0064C39.9037 35.0204 38.7337 35.8264 37.3297 35.8264C35.2497 35.8264 34.0537 34.5264 34.0537 32.2124V24.3344H32.4937V23.9704C33.8717 22.8524 35.1717 21.7084 36.5237 19.9404H36.8877V23.6844H40.1897V24.3344H36.8877V32.2384C36.8877 33.6944 37.5117 34.5004 38.7597 34.5004C39.2797 34.5004 39.7737 34.2664 40.1377 33.8504L40.3977 34.0064Z" fill="white"/>
<path d="M22.8053 31.5106C23.6373 33.9286 25.1713 35.1766 26.8353 35.1766C28.2393 35.1766 29.1753 34.3706 29.1753 33.1486C29.1753 29.7686 22.2073 31.8486 22.2073 26.8046C22.2333 24.6466 24.0273 23.3206 26.7313 23.3206C28.4993 23.3206 29.6953 23.6326 30.5273 24.1006L30.2933 27.1166H29.9293C29.4353 25.1406 28.1873 23.9706 26.5233 23.9706C25.2493 23.9706 24.3913 24.6986 24.3913 25.7646C24.3913 28.9366 31.3333 27.1166 31.3333 32.0306C31.3333 34.3706 29.4093 35.8526 26.7573 35.8526C24.4953 35.8526 22.8313 35.2026 22.1553 34.6306L22.4413 31.5106H22.8053Z" fill="white"/>
<path d="M18.894 33.7204C18.894 34.5784 19.284 34.9684 20.324 35.1244V35.4884H14.656V35.1244C15.67 34.9684 16.06 34.5784 16.06 33.7204V26.2064C16.06 25.3484 15.722 24.9064 14.812 24.8284L14.5 24.8024V24.4384L18.894 23.2944V33.7204Z" fill="white"/>
<path d="M12.012 33.7205C12.012 34.5785 12.402 34.9685 13.442 35.1245V35.4885H7.774V35.1245C8.788 34.9685 9.178 34.5785 9.178 33.7205V27.5585C9.178 25.8685 8.32 25.1145 7.072 25.1145C5.746 25.1145 4.42 26.0765 4.42 28.2605V33.7205C4.42 34.5785 4.81 34.9685 5.824 35.1245V35.4885H0.155999V35.1245C1.196 34.9685 1.586 34.5785 1.586 33.7205V20.1745C1.586 19.3165 1.222 18.8745 0.311999 18.7965L0 18.7705V18.4065L4.42 17.2625V26.3105C5.07 24.4645 6.5 23.2945 8.45 23.2945C10.634 23.2945 12.012 24.7505 12.012 27.3245V33.7205Z" fill="white"/>
<path d="M17.4775 16.6167C18.581 16.6167 19.4639 17.4852 19.4639 18.6431C19.4637 19.7745 18.5809 20.6167 17.4775 20.6167C16.3191 20.6166 15.4641 19.7744 15.4639 18.6431C15.4639 17.4852 16.319 16.6168 17.4775 16.6167Z" fill="white"/>
<path d="M60.0002 39.1465V47.712H59.1069V39.1465H60.0002Z" fill="#7C9DB4"/>
<path d="M56.7459 47.712V46.5617C56.5991 46.9451 56.3748 47.2592 56.0729 47.5039C55.7711 47.7405 55.404 47.8588 54.9716 47.8588C54.629 47.8588 54.319 47.7813 54.0417 47.6263C53.7725 47.4632 53.5563 47.2429 53.3931 46.9655C53.2381 46.68 53.1606 46.3619 53.1606 46.0111C53.1606 45.6277 53.2585 45.2851 53.4543 44.9832C53.6583 44.6814 53.9356 44.4448 54.2864 44.2735C54.6372 44.0941 55.0328 44.0043 55.4733 44.0043C55.6773 44.0043 55.8935 44.0247 56.1219 44.0655C56.3584 44.1063 56.5665 44.1593 56.7459 44.2246V43.9309C56.7459 43.3843 56.648 42.9275 56.4523 42.5604C56.2565 42.1933 55.9261 42.0098 55.4611 42.0098C55.0369 42.0098 54.7024 42.1607 54.4577 42.4625C54.2211 42.7644 54.1355 43.1396 54.2007 43.5883H53.2585C53.2748 43.2049 53.3687 42.8459 53.54 42.5115C53.7113 42.177 53.956 41.9078 54.2742 41.7039C54.6005 41.4999 54.9961 41.3979 55.4611 41.3979C56.1627 41.3979 56.7011 41.6427 57.0763 42.1321C57.4516 42.6134 57.6392 43.2742 57.6392 44.1144V47.712H56.7459ZM54.0661 45.9866C54.0661 46.3537 54.1763 46.6556 54.3965 46.8921C54.6249 47.1205 54.9105 47.2347 55.2531 47.2347C55.5304 47.2347 55.7752 47.1491 55.9873 46.9778C56.2075 46.8065 56.3829 46.5821 56.5134 46.3048C56.644 46.0193 56.7215 45.7052 56.7459 45.3626V44.8119C56.5909 44.7467 56.4115 44.6936 56.2075 44.6529C56.0117 44.6121 55.8282 44.5917 55.6569 44.5917C55.1919 44.5917 54.8085 44.7263 54.5067 44.9955C54.213 45.2565 54.0661 45.5869 54.0661 45.9866Z" fill="#7C9DB4"/>
<path d="M49.2324 42.2056V41.5449H50.1991V40.2356L51.0924 39.844V41.5449H52.4384V42.2056H51.0924V45.7909C51.0924 46.0438 51.1087 46.2804 51.1413 46.5006C51.1821 46.7127 51.2555 46.8881 51.3616 47.0268C51.4676 47.1655 51.6226 47.2348 51.8266 47.2348C51.9897 47.2348 52.1162 47.2022 52.2059 47.1369C52.2956 47.0717 52.369 47.0105 52.4261 46.9534V47.6631C52.369 47.6957 52.2834 47.7365 52.1692 47.7855C52.0631 47.8344 51.9 47.8589 51.6797 47.8589C51.1903 47.8589 50.8191 47.6631 50.5662 47.2715C50.3215 46.88 50.1991 46.3742 50.1991 45.7542V42.2056H49.2324Z" fill="#7C9DB4"/>
<path d="M47.1418 44.3102V47.712H46.2485V41.5448H47.1418V42.7562C47.2642 42.3157 47.4477 41.9812 47.6924 41.7528C47.9372 41.5162 48.2105 41.3979 48.5123 41.3979C48.6265 41.3979 48.7203 41.4102 48.7937 41.4347C48.8753 41.451 48.9365 41.4673 48.9773 41.4836V42.3402C48.8549 42.2341 48.6591 42.1811 48.3899 42.1811C48.186 42.1811 47.9861 42.2708 47.7903 42.4503C47.6027 42.6216 47.4477 42.8663 47.3253 43.1845C47.203 43.5026 47.1418 43.8779 47.1418 44.3102Z" fill="#7C9DB4"/>
<path d="M39.9302 44.6284C39.9302 44.0737 40.0444 43.5638 40.2728 43.0988C40.5094 42.6338 40.7908 42.2504 41.1171 41.9486C41.5005 41.5815 41.9655 41.3979 42.5121 41.3979C42.7486 41.3979 42.9852 41.4428 43.2218 41.5326C43.4665 41.6223 43.6909 41.761 43.8948 41.9486C44.2129 42.2504 44.4862 42.6338 44.7146 43.0988C44.9512 43.5638 45.0695 44.0737 45.0695 44.6284C45.0695 45.1913 44.9512 45.7011 44.7146 46.1579C44.4862 46.6148 44.2129 46.9941 43.8948 47.2959C43.699 47.4836 43.4788 47.6222 43.234 47.712C42.9975 47.8099 42.7568 47.8588 42.5121 47.8588C42.2592 47.8588 42.0104 47.8099 41.7656 47.712C41.5291 47.6222 41.3129 47.4836 41.1171 47.2959C40.7908 46.9941 40.5094 46.6148 40.2728 46.1579C40.0444 45.7011 39.9302 45.1913 39.9302 44.6284ZM40.8357 44.6284C40.8357 45.0934 40.9132 45.5339 41.0682 45.9499C41.2313 46.366 41.4189 46.6678 41.631 46.8554C41.9002 47.1165 42.1939 47.247 42.5121 47.247C42.8221 47.247 43.1117 47.1165 43.3809 46.8554C43.6011 46.6515 43.7847 46.3456 43.9315 45.9377C44.0865 45.5298 44.164 45.0934 44.164 44.6284C44.164 44.1634 44.0865 43.731 43.9315 43.3313C43.7765 42.9234 43.593 42.6175 43.3809 42.4136C43.1117 42.1444 42.8221 42.0098 42.5121 42.0098C42.1939 42.0098 41.9002 42.1444 41.631 42.4136C41.4189 42.6175 41.2313 42.9234 41.0682 43.3313C40.9132 43.731 40.8357 44.1634 40.8357 44.6284Z" fill="#7C9DB4"/>
<path d="M34 49.6698V41.5448H34.8933V42.9397C35.0075 42.54 35.1992 42.2137 35.4684 41.9608C35.656 41.7732 35.8599 41.6345 36.0802 41.5448C36.3005 41.4469 36.5248 41.3979 36.7532 41.3979C36.9898 41.3979 37.2182 41.4469 37.4384 41.5448C37.6587 41.6345 37.8586 41.7732 38.038 41.9608C38.3317 42.2627 38.5846 42.6461 38.7967 43.1111C39.017 43.5679 39.1271 44.0777 39.1271 44.6406C39.1271 45.1872 39.017 45.6929 38.7967 46.1579C38.5846 46.6148 38.3317 46.9941 38.038 47.2959C37.8504 47.4917 37.6424 47.6345 37.414 47.7242C37.1937 47.8139 36.9735 47.8588 36.7532 47.8588C36.2474 47.8588 35.8192 47.6712 35.4684 47.2959C35.1992 47.0349 35.0075 46.7086 34.8933 46.317V49.6698H34ZM34.8933 44.6406C34.8933 45.1056 34.9667 45.542 35.1135 45.9499C35.2685 46.3496 35.4521 46.6515 35.6642 46.8554C35.9497 47.1165 36.2474 47.247 36.5574 47.247C36.8756 47.247 37.1692 47.1165 37.4384 46.8554C37.6505 46.6515 37.8341 46.3496 37.9891 45.9499C38.1441 45.542 38.2216 45.1056 38.2216 44.6406C38.2216 44.1675 38.14 43.7229 37.9769 43.3068C37.8219 42.8908 37.6383 42.589 37.4262 42.4013C37.1407 42.1403 36.847 42.0098 36.5452 42.0098C36.2434 42.0098 35.9497 42.1403 35.6642 42.4013C35.4521 42.6053 35.2685 42.9112 35.1135 43.3191C34.9667 43.727 34.8933 44.1675 34.8933 44.6406Z" fill="#7C9DB4"/>
<path d="M44.2522 54.1124C50.1361 59.0738 58.0576 61.7146 66.4306 60.7942C82.3796 59.0406 93.9257 45.0345 92.2191 29.5104C90.5124 13.9861 76.1992 2.8221 60.2501 4.57528C54.8626 5.16763 49.9784 7.15982 45.9369 10.1346C50.3143 6.42293 55.8084 3.93288 61.9425 3.25842C78.311 1.45891 93.0391 13.2694 94.8386 29.638C96.6381 46.0065 84.8276 60.7346 68.4591 62.5341C59.1756 63.5546 50.4209 60.1962 44.2522 54.1124Z" fill="#7C9DB4"/>
</svg>
