<svg width="101" height="70" viewBox="0 0 101 70" fill="none" xmlns="http://www.w3.org/2000/svg">
<path d="M67.6569 41.9705C68.5584 42.7628 69.5146 43.036 70.2795 43.036C71.3176 43.036 72.1918 42.2164 72.9021 40.5227L73.2845 39.6758L68.9955 29.8683C68.4218 28.557 67.7115 27.7921 67.1105 27.7374V27.355H73.3392V27.7374C72.4103 27.7921 71.9186 28.1472 71.9186 28.7209C71.9186 28.9122 71.9732 29.1307 72.0825 29.3766L74.869 36.015L77.3551 30.3054C77.6556 29.6771 77.7922 29.1853 77.7922 28.8302C77.7922 28.0926 77.2731 27.8194 76.2623 27.7374V27.355H80.3328V27.7374C79.5952 27.8467 78.9395 28.5024 78.038 30.4147L73.5851 40.6319C72.0006 44.1834 70.6619 45.5493 68.4764 45.5493C67.9847 45.5493 67.411 45.3854 66.728 45.0576L67.6569 41.9705Z" fill="#020D22"/>
<path d="M61.6403 30.8956C62.3233 28.5189 63.7712 27.0437 65.3284 27.0437C65.6835 27.0437 66.066 27.1256 66.4484 27.3169L66.2026 30.0761C65.7381 29.7209 65.1371 29.5297 64.5361 29.5297C63.1155 29.5297 61.6676 30.6224 61.6403 33.3543V37.9712C61.6403 38.9 62.296 39.3098 63.8531 39.4464V39.8289H57.1873V39.4464C58.2528 39.2825 58.6626 38.8727 58.6626 37.9712V30.0761C58.6626 29.1745 58.3074 28.7101 57.3513 28.6282L57.0234 28.6008V28.2184L61.6403 27.0164V30.8956Z" fill="#020D22"/>
<path d="M49.5949 40.2113C45.9069 40.2113 43.3936 37.5341 43.3936 33.6275C43.3936 29.6936 45.9069 27.0164 49.5949 27.0164C53.3103 27.0164 55.8236 29.6936 55.8236 33.6275C55.8236 37.5341 53.3103 40.2113 49.5949 40.2113ZM46.5625 33.6275C46.5625 37.4248 47.6826 39.5284 49.5949 39.5284C51.5346 39.5284 52.6546 37.4248 52.6546 33.6275C52.6546 29.8302 51.5346 27.6993 49.5949 27.6993C47.6826 27.6993 46.5625 29.8302 46.5625 33.6275Z" fill="#020D22"/>
<path d="M42.509 38.2719C41.99 39.3373 40.7606 40.1842 39.2854 40.1842C37.0999 40.1842 35.8432 38.8183 35.8432 36.3869V28.1093H34.2041V27.7268C35.652 26.5521 37.0179 25.3501 38.4385 23.4924H38.821V27.4263H42.2905V28.1093H38.821V36.4142C38.821 37.9441 39.4766 38.791 40.7879 38.791C41.3343 38.791 41.8534 38.5451 42.2358 38.108L42.509 38.2719Z" fill="#020D22"/>
<path d="M24.0243 35.6494C24.8985 38.19 26.5103 39.5013 28.2587 39.5013C29.7339 39.5013 30.7174 38.6544 30.7174 37.3705C30.7174 33.819 23.3959 36.0045 23.3959 30.7047C23.4233 28.4372 25.3083 27.0439 28.1494 27.0439C30.0071 27.0439 31.2638 27.3718 32.138 27.8635L31.8921 31.0325H31.5096C30.9906 28.9563 29.6793 27.7269 27.9309 27.7269C26.5922 27.7269 25.6907 28.4918 25.6907 29.6119C25.6907 32.9448 32.9849 31.0325 32.9849 36.1957C32.9849 38.6544 30.9633 40.2116 28.1767 40.2116C25.8 40.2116 24.0516 39.5286 23.3413 38.9276L23.6418 35.6494H24.0243Z" fill="#020D22"/>
<path d="M19.9147 37.9712C19.9147 38.8727 20.3245 39.2825 21.4173 39.4464V39.8289H15.4618V39.4464C16.5272 39.2825 16.937 38.8727 16.937 37.9712V30.0761C16.937 29.1745 16.5818 28.7101 15.6257 28.6282L15.2979 28.6008V28.2184L19.9147 27.0164V37.9712Z" fill="#020D22"/>
<path d="M12.6838 37.9713C12.6838 38.8728 13.0936 39.2826 14.1863 39.4465V39.829H8.23083V39.4465C9.29626 39.2826 9.70604 38.8728 9.70604 37.9713V31.4967C9.70604 29.721 8.80452 28.9287 7.49322 28.9287C6.09996 28.9287 4.7067 29.9395 4.7067 32.2343V37.9713C4.7067 38.8728 5.11648 39.2826 6.18191 39.4465V39.829H0.226412V39.4465C1.31916 39.2826 1.72895 38.8728 1.72895 37.9713V23.7382C1.72895 22.8367 1.34648 22.3722 0.390325 22.2903L0.0625 22.263V21.8805L4.7067 20.6785V30.1854C5.38967 28.2458 6.8922 27.0164 8.94112 27.0164C11.2359 27.0164 12.6838 28.5463 12.6838 31.2508V37.9713Z" fill="#020D22"/>
<path d="M18.4268 20C19.5861 20 20.5137 20.9123 20.5137 22.1289C20.5136 23.3178 19.5861 24.2031 18.4268 24.2031C17.2094 24.2031 16.3106 23.3178 16.3105 22.1289C16.3105 20.9123 17.2094 20 18.4268 20Z" fill="#020D22"/>
<path d="M62.0002 44.3489V52.9145H61.1069V44.3489H62.0002Z" fill="#020D22"/>
<path d="M58.746 52.9144V51.7642C58.5991 52.1476 58.3748 52.4616 58.0729 52.7064C57.7711 52.943 57.404 53.0612 56.9717 53.0612C56.629 53.0612 56.319 52.9837 56.0417 52.8287C55.7725 52.6656 55.5563 52.4453 55.3931 52.168C55.2381 51.8825 55.1606 51.5643 55.1606 51.2135C55.1606 50.8301 55.2585 50.4875 55.4543 50.1857C55.6583 49.8838 55.9356 49.6472 56.2864 49.4759C56.6372 49.2965 57.0328 49.2067 57.4734 49.2067C57.6773 49.2067 57.8935 49.2271 58.1219 49.2679C58.3585 49.3087 58.5665 49.3617 58.746 49.427V49.1333C58.746 48.5867 58.6481 48.1299 58.4523 47.7628C58.2565 47.3957 57.9261 47.2122 57.4611 47.2122C57.0369 47.2122 56.7025 47.3631 56.4577 47.6649C56.2211 47.9668 56.1355 48.342 56.2008 48.7907H55.2585C55.2749 48.4073 55.3687 48.0483 55.54 47.7139C55.7113 47.3794 55.956 47.1102 56.2742 46.9063C56.6005 46.7023 56.9961 46.6003 57.4611 46.6003C58.1627 46.6003 58.7011 46.8451 59.0763 47.3345C59.4516 47.8158 59.6392 48.4766 59.6392 49.3169V52.9144H58.746ZM56.0662 51.189C56.0662 51.5561 56.1763 51.858 56.3965 52.0946C56.625 52.323 56.9105 52.4372 57.2531 52.4372C57.5305 52.4372 57.7752 52.3515 57.9873 52.1802C58.2075 52.0089 58.3829 51.7846 58.5135 51.5072C58.644 51.2217 58.7215 50.9076 58.746 50.565V50.0143C58.591 49.9491 58.4115 49.8961 58.2075 49.8553C58.0118 49.8145 57.8282 49.7941 57.6569 49.7941C57.1919 49.7941 56.8085 49.9287 56.5067 50.1979C56.213 50.4589 56.0662 50.7893 56.0662 51.189Z" fill="#020D22"/>
<path d="M51.2329 47.408V46.7473H52.1996V45.438L53.0929 45.0464V46.7473H54.4389V47.408H53.0929V50.9933C53.0929 51.2462 53.1092 51.4828 53.1418 51.7031C53.1826 51.9152 53.256 52.0906 53.3621 52.2292C53.4681 52.3679 53.6231 52.4373 53.8271 52.4373C53.9902 52.4373 54.1167 52.4046 54.2064 52.3394C54.2961 52.2741 54.3695 52.2129 54.4267 52.1558V52.8655C54.3695 52.8982 54.2839 52.939 54.1697 52.9879C54.0636 53.0369 53.9005 53.0613 53.6802 53.0613C53.1908 53.0613 52.8196 52.8655 52.5667 52.474C52.322 52.0824 52.1996 51.5766 52.1996 50.9566V47.408H51.2329Z" fill="#020D22"/>
<path d="M49.1423 49.5126V52.9144H48.249V46.7472H49.1423V47.9586C49.2647 47.5181 49.4482 47.1836 49.6929 46.9552C49.9377 46.7186 50.211 46.6003 50.5128 46.6003C50.627 46.6003 50.7208 46.6126 50.7942 46.6371C50.8758 46.6534 50.937 46.6697 50.9778 46.686V47.5426C50.8554 47.4365 50.6596 47.3835 50.3904 47.3835C50.1865 47.3835 49.9866 47.4732 49.7908 47.6527C49.6032 47.824 49.4482 48.0687 49.3258 48.3869C49.2035 48.705 49.1423 49.0803 49.1423 49.5126Z" fill="#020D22"/>
<path d="M41.9307 49.8308C41.9307 49.2761 42.0449 48.7662 42.2733 48.3012C42.5099 47.8362 42.7913 47.4528 43.1176 47.151C43.501 46.7839 43.966 46.6003 44.5126 46.6003C44.7491 46.6003 44.9857 46.6452 45.2223 46.7349C45.467 46.8247 45.6914 46.9634 45.8953 47.151C46.2135 47.4528 46.4867 47.8362 46.7152 48.3012C46.9517 48.7662 47.07 49.2761 47.07 49.8308C47.07 50.3937 46.9517 50.9035 46.7152 51.3604C46.4867 51.8172 46.2135 52.1965 45.8953 52.4984C45.6995 52.686 45.4793 52.8247 45.2345 52.9144C44.998 53.0123 44.7573 53.0612 44.5126 53.0612C44.2597 53.0612 44.0109 53.0123 43.7661 52.9144C43.5296 52.8247 43.3134 52.686 43.1176 52.4984C42.7913 52.1965 42.5099 51.8172 42.2733 51.3604C42.0449 50.9035 41.9307 50.3937 41.9307 49.8308ZM42.8362 49.8308C42.8362 50.2958 42.9137 50.7363 43.0687 51.1523C43.2318 51.5684 43.4194 51.8702 43.6315 52.0578C43.9007 52.3189 44.1944 52.4494 44.5126 52.4494C44.8226 52.4494 45.1122 52.3189 45.3814 52.0578C45.6016 51.8539 45.7852 51.548 45.932 51.1401C46.087 50.7322 46.1645 50.2958 46.1645 49.8308C46.1645 49.3658 46.087 48.9334 45.932 48.5337C45.777 48.1258 45.5935 47.8199 45.3814 47.616C45.1122 47.3468 44.8226 47.2122 44.5126 47.2122C44.1944 47.2122 43.9007 47.3468 43.6315 47.616C43.4194 47.8199 43.2318 48.1258 43.0687 48.5337C42.9137 48.9334 42.8362 49.3658 42.8362 49.8308Z" fill="#020D22"/>
<path d="M36 54.8722V46.7472H36.8933V48.1421C37.0075 47.7424 37.1992 47.4161 37.4684 47.1632C37.656 46.9756 37.86 46.8369 38.0802 46.7472C38.3005 46.6493 38.5248 46.6003 38.7532 46.6003C38.9898 46.6003 39.2182 46.6493 39.4385 46.7472C39.6587 46.8369 39.8586 46.9756 40.0381 47.1632C40.3317 47.4651 40.5846 47.8485 40.7967 48.3135C41.017 48.7703 41.1271 49.2801 41.1271 49.843C41.1271 50.3896 41.017 50.8954 40.7967 51.3604C40.5846 51.8172 40.3317 52.1965 40.0381 52.4984C39.8504 52.6941 39.6424 52.8369 39.414 52.9266C39.1937 53.0164 38.9735 53.0612 38.7532 53.0612C38.2474 53.0612 37.8192 52.8736 37.4684 52.4984C37.1992 52.2373 37.0075 51.911 36.8933 51.5194V54.8722H36ZM36.8933 49.843C36.8933 50.308 36.9667 50.7445 37.1135 51.1523C37.2685 51.5521 37.4521 51.8539 37.6642 52.0578C37.9497 52.3189 38.2474 52.4494 38.5574 52.4494C38.8756 52.4494 39.1693 52.3189 39.4385 52.0578C39.6506 51.8539 39.8341 51.5521 39.9891 51.1523C40.1441 50.7445 40.2216 50.308 40.2216 49.843C40.2216 49.3699 40.14 48.9253 39.9769 48.5092C39.8219 48.0932 39.6383 47.7914 39.4262 47.6037C39.1407 47.3427 38.847 47.2122 38.5452 47.2122C38.2434 47.2122 37.9497 47.3427 37.6642 47.6037C37.4521 47.8077 37.2685 48.1136 37.1135 48.5215C36.9667 48.9294 36.8933 49.3699 36.8933 49.843Z" fill="#020D22"/>
<path d="M38.7484 61.1372C45.9262 66.4393 55.2884 68.9043 64.9077 67.2154C83.2307 63.9977 95.546 46.9317 92.4145 29.0968C89.2827 11.2618 71.8897 -0.588598 53.5666 2.62858C47.3773 3.71548 41.8746 6.38455 37.4201 10.1277C42.2083 5.50689 48.3795 2.21634 55.4266 0.9788C74.2315 -2.32325 92.1527 10.2443 95.4548 29.0492C98.7568 47.8541 86.1893 65.7753 67.3844 69.0773C56.7191 70.95 46.3393 67.7167 38.7484 61.1372Z" fill="#020D22"/>
</svg>
