<svg width="99" height="66" viewBox="0 0 99 66" fill="none" xmlns="http://www.w3.org/2000/svg">
<path d="M64.3313 38.5267C65.1893 39.2807 66.0993 39.5407 66.8273 39.5407C67.8153 39.5407 68.6473 38.7607 69.3233 37.1487L69.6873 36.3427L65.6053 27.0087C65.0593 25.7607 64.3833 25.0327 63.8113 24.9807V24.6167H69.7393V24.9807C68.8553 25.0327 68.3873 25.3707 68.3873 25.9167C68.3873 26.0987 68.4393 26.3067 68.5433 26.5407L71.1953 32.8587L73.5613 27.4247C73.8473 26.8267 73.9773 26.3587 73.9773 26.0207C73.9773 25.3187 73.4833 25.0587 72.5213 24.9807V24.6167H76.3953V24.9807C75.6933 25.0847 75.0693 25.7087 74.2113 27.5287L69.9733 37.2527C68.4653 40.6327 67.1913 41.9327 65.1113 41.9327C64.6433 41.9327 64.0973 41.7767 63.4473 41.4647L64.3313 38.5267Z" fill="white"/>
<path d="M58.6049 27.9864C59.2549 25.7244 60.6329 24.3204 62.1149 24.3204C62.4529 24.3204 62.8169 24.3984 63.1809 24.5804L62.9469 27.2064C62.5049 26.8684 61.9329 26.6864 61.3609 26.6864C60.0089 26.6864 58.6309 27.7264 58.6049 30.3264V34.7204C58.6049 35.6044 59.2289 35.9944 60.7109 36.1244V36.4884H54.3669V36.1244C55.3809 35.9684 55.7709 35.5784 55.7709 34.7204V27.2064C55.7709 26.3484 55.4329 25.9064 54.5229 25.8284L54.2109 25.8024V25.4384L58.6049 24.2944V27.9864Z" fill="white"/>
<path d="M47.1413 36.8524C43.6313 36.8524 41.2393 34.3044 41.2393 30.5864C41.2393 26.8424 43.6313 24.2944 47.1413 24.2944C50.6773 24.2944 53.0693 26.8424 53.0693 30.5864C53.0693 34.3044 50.6773 36.8524 47.1413 36.8524ZM44.2553 30.5864C44.2553 34.2004 45.3213 36.2024 47.1413 36.2024C48.9873 36.2024 50.0533 34.2004 50.0533 30.5864C50.0533 26.9724 48.9873 24.9444 47.1413 24.9444C45.3213 24.9444 44.2553 26.9724 44.2553 30.5864Z" fill="white"/>
<path d="M40.3977 35.0064C39.9037 36.0204 38.7337 36.8264 37.3297 36.8264C35.2497 36.8264 34.0537 35.5264 34.0537 33.2124V25.3344H32.4937V24.9704C33.8717 23.8524 35.1717 22.7084 36.5237 20.9404H36.8877V24.6844H40.1897V25.3344H36.8877V33.2384C36.8877 34.6944 37.5117 35.5004 38.7597 35.5004C39.2797 35.5004 39.7737 35.2664 40.1377 34.8504L40.3977 35.0064Z" fill="white"/>
<path d="M22.8053 32.5106C23.6373 34.9286 25.1713 36.1766 26.8353 36.1766C28.2393 36.1766 29.1753 35.3706 29.1753 34.1486C29.1753 30.7686 22.2073 32.8486 22.2073 27.8046C22.2333 25.6466 24.0273 24.3206 26.7313 24.3206C28.4993 24.3206 29.6953 24.6326 30.5273 25.1006L30.2933 28.1166H29.9293C29.4353 26.1406 28.1873 24.9706 26.5233 24.9706C25.2493 24.9706 24.3913 25.6986 24.3913 26.7646C24.3913 29.9366 31.3333 28.1166 31.3333 33.0306C31.3333 35.3706 29.4093 36.8526 26.7573 36.8526C24.4953 36.8526 22.8313 36.2026 22.1553 35.6306L22.4413 32.5106H22.8053Z" fill="white"/>
<path d="M18.894 34.7204C18.894 35.5784 19.284 35.9684 20.324 36.1244V36.4884H14.656V36.1244C15.67 35.9684 16.06 35.5784 16.06 34.7204V27.2064C16.06 26.3484 15.722 25.9064 14.812 25.8284L14.5 25.8024V25.4384L18.894 24.2944V34.7204Z" fill="white"/>
<path d="M12.012 34.7205C12.012 35.5785 12.402 35.9685 13.442 36.1245V36.4885H7.774V36.1245C8.788 35.9685 9.178 35.5785 9.178 34.7205V28.5585C9.178 26.8685 8.32 26.1145 7.072 26.1145C5.746 26.1145 4.42 27.0765 4.42 29.2605V34.7205C4.42 35.5785 4.81 35.9685 5.824 36.1245V36.4885H0.155999V36.1245C1.196 35.9685 1.586 35.5785 1.586 34.7205V21.1745C1.586 20.3165 1.222 19.8745 0.311999 19.7965L0 19.7705V19.4065L4.42 18.2625V27.3105C5.07 25.4645 6.5 24.2945 8.45 24.2945C10.634 24.2945 12.012 25.7505 12.012 28.3245V34.7205Z" fill="white"/>
<path d="M17.4775 17.6167C18.581 17.6167 19.4639 18.4852 19.4639 19.6431C19.4637 20.7745 18.5809 21.6167 17.4775 21.6167C16.3191 21.6166 15.4641 20.7744 15.4639 19.6431C15.4639 18.4852 16.319 17.6168 17.4775 17.6167Z" fill="white"/>
<path d="M60.9999 38.1465V47.0414H60.0723V38.1465H60.9999Z" fill="#7C9DB4"/>
<path d="M57.6206 47.0414V45.847C57.4681 46.2451 57.2352 46.5713 56.9217 46.8254C56.6083 47.0711 56.2271 47.1939 55.7781 47.1939C55.4223 47.1939 55.1004 47.1134 54.8124 46.9525C54.5328 46.7831 54.3083 46.5543 54.1389 46.2663C53.9779 45.9698 53.8975 45.6394 53.8975 45.2752C53.8975 44.877 53.9991 44.5212 54.2024 44.2078C54.4142 43.8943 54.7022 43.6487 55.0665 43.4708C55.4308 43.2844 55.8416 43.1912 56.2991 43.1912C56.5109 43.1912 56.7354 43.2124 56.9726 43.2547C57.2182 43.2971 57.4342 43.3522 57.6206 43.4199V43.115C57.6206 42.5474 57.519 42.073 57.3156 41.6918C57.1123 41.3106 56.7692 41.12 56.2864 41.12C55.8459 41.12 55.4985 41.2767 55.2444 41.5901C54.9987 41.9036 54.9098 42.2932 54.9776 42.7592H53.9991C54.0161 42.361 54.1135 41.9883 54.2914 41.641C54.4693 41.2936 54.7234 41.0141 55.0538 40.8023C55.3927 40.5905 55.8035 40.4846 56.2864 40.4846C57.0149 40.4846 57.574 40.7388 57.9637 41.247C58.3534 41.7468 58.5482 42.433 58.5482 43.3056V47.0414H57.6206ZM54.8378 45.2497C54.8378 45.631 54.9521 45.9444 55.1809 46.1901C55.4181 46.4273 55.7146 46.5459 56.0704 46.5459C56.3584 46.5459 56.6125 46.4569 56.8328 46.279C57.0615 46.1011 57.2436 45.8682 57.3792 45.5801C57.5147 45.2836 57.5952 44.9575 57.6206 44.6017V44.0299C57.4597 43.9621 57.2733 43.907 57.0615 43.8647C56.8582 43.8223 56.6676 43.8011 56.4897 43.8011C56.0068 43.8011 55.6087 43.9409 55.2952 44.2205C54.9903 44.4916 54.8378 44.8347 54.8378 45.2497Z" fill="#7C9DB4"/>
<path d="M49.8184 41.3233V40.6371H50.8222V39.2775L51.7498 38.8708V40.6371H53.1476V41.3233H51.7498V45.0465C51.7498 45.3091 51.7668 45.5547 51.8007 45.7835C51.843 46.0037 51.9193 46.1858 52.0294 46.3299C52.1395 46.4739 52.3005 46.5459 52.5122 46.5459C52.6817 46.5459 52.813 46.512 52.9062 46.4442C52.9994 46.3765 53.0756 46.3129 53.1349 46.2536V46.9906C53.0756 47.0245 52.9866 47.0669 52.868 47.1177C52.7579 47.1685 52.5885 47.1939 52.3598 47.1939C51.8515 47.1939 51.466 46.9906 51.2034 46.584C50.9493 46.1774 50.8222 45.6522 50.8222 45.0083V41.3233H49.8184Z" fill="#7C9DB4"/>
<path d="M47.6473 43.5089V47.0414H46.7197V40.6371H47.6473V41.8951C47.7744 41.4376 47.965 41.0903 48.2192 40.8531C48.4733 40.6075 48.7571 40.4846 49.0705 40.4846C49.1891 40.4846 49.2865 40.4973 49.3628 40.5227C49.4475 40.5397 49.511 40.5566 49.5534 40.5736V41.4631C49.4263 41.3529 49.223 41.2979 48.9435 41.2979C48.7317 41.2979 48.5241 41.3911 48.3208 41.5774C48.126 41.7553 47.965 42.0095 47.8379 42.3398C47.7109 42.6702 47.6473 43.0599 47.6473 43.5089Z" fill="#7C9DB4"/>
<path d="M40.1582 43.8393C40.1582 43.2632 40.2768 42.7338 40.514 42.2509C40.7597 41.768 41.0519 41.3699 41.3908 41.0564C41.7889 40.6752 42.2718 40.4846 42.8394 40.4846C43.0851 40.4846 43.3307 40.5312 43.5764 40.6244C43.8305 40.7176 44.0635 40.8616 44.2753 41.0564C44.6057 41.3699 44.8894 41.768 45.1266 42.2509C45.3723 42.7338 45.4951 43.2632 45.4951 43.8393C45.4951 44.4238 45.3723 44.9532 45.1266 45.4276C44.8894 45.902 44.6057 46.296 44.2753 46.6094C44.072 46.8042 43.8432 46.9482 43.5891 47.0414C43.3434 47.1431 43.0935 47.1939 42.8394 47.1939C42.5768 47.1939 42.3184 47.1431 42.0643 47.0414C41.8186 46.9482 41.5941 46.8042 41.3908 46.6094C41.0519 46.296 40.7597 45.902 40.514 45.4276C40.2768 44.9532 40.1582 44.4238 40.1582 43.8393ZM41.0985 43.8393C41.0985 44.3221 41.179 44.7796 41.34 45.2116C41.5094 45.6437 41.7042 45.9571 41.9245 46.1519C42.204 46.423 42.509 46.5586 42.8394 46.5586C43.1613 46.5586 43.462 46.423 43.7416 46.1519C43.9703 45.9402 44.1609 45.6225 44.3134 45.1989C44.4743 44.7754 44.5548 44.3221 44.5548 43.8393C44.5548 43.3564 44.4743 42.9074 44.3134 42.4923C44.1524 42.0688 43.9618 41.7511 43.7416 41.5393C43.462 41.2597 43.1613 41.12 42.8394 41.12C42.509 41.12 42.204 41.2597 41.9245 41.5393C41.7042 41.7511 41.5094 42.0688 41.34 42.4923C41.179 42.9074 41.0985 43.3564 41.0985 43.8393Z" fill="#7C9DB4"/>
<path d="M34 49.0746V40.6371H34.9276V42.0857C35.0462 41.6706 35.2453 41.3318 35.5248 41.0691C35.7197 40.8743 35.9315 40.7303 36.1602 40.6371C36.3889 40.5354 36.6219 40.4846 36.8591 40.4846C37.1047 40.4846 37.3419 40.5354 37.5707 40.6371C37.7994 40.7303 38.0069 40.8743 38.1933 41.0691C38.4983 41.3826 38.7609 41.7807 38.9811 42.2636C39.2099 42.738 39.3242 43.2675 39.3242 43.852C39.3242 44.4196 39.2099 44.9448 38.9811 45.4276C38.7609 45.902 38.4983 46.296 38.1933 46.6094C37.9985 46.8127 37.7825 46.961 37.5453 47.0541C37.3165 47.1473 37.0878 47.1939 36.8591 47.1939C36.3339 47.1939 35.8891 46.9991 35.5248 46.6094C35.2453 46.3383 35.0462 45.9995 34.9276 45.5928V49.0746H34ZM34.9276 43.852C34.9276 44.3348 35.0039 44.7881 35.1563 45.2116C35.3173 45.6267 35.5079 45.9402 35.7282 46.1519C36.0246 46.423 36.3339 46.5586 36.6558 46.5586C36.9861 46.5586 37.2911 46.423 37.5707 46.1519C37.7909 45.9402 37.9815 45.6267 38.1425 45.2116C38.3034 44.7881 38.3839 44.3348 38.3839 43.852C38.3839 43.3606 38.2992 42.899 38.1298 42.4669C37.9688 42.0349 37.7782 41.7214 37.558 41.5266C37.2615 41.2555 36.9565 41.12 36.6431 41.12C36.3296 41.12 36.0246 41.2555 35.7282 41.5266C35.5079 41.7384 35.3173 42.0561 35.1563 42.4796C35.0039 42.9032 34.9276 43.3606 34.9276 43.852Z" fill="#7C9DB4"/>
<path d="M44.2522 54.1124C50.1361 59.0738 58.0576 61.7146 66.4306 60.7942C82.3796 59.0406 93.9257 45.0345 92.2191 29.5104C90.5124 13.9861 76.1992 2.8221 60.2501 4.57528C54.8626 5.16763 49.9784 7.15982 45.9369 10.1346C50.3143 6.42293 55.8084 3.93288 61.9425 3.25842C78.311 1.45891 93.0391 13.2694 94.8386 29.638C96.6381 46.0065 84.8276 60.7346 68.4591 62.5341C59.1756 63.5546 50.4209 60.1962 44.2522 54.1124Z" fill="#7C9DB4"/>
</svg>
