<svg width="347" height="196" viewBox="0 0 347 196" fill="none" xmlns="http://www.w3.org/2000/svg">
<path d="M302.413 149.88C300.013 149.88 297.973 149.64 296.293 149.16C294.693 148.76 293.573 148.44 292.933 148.2V136.44C293.493 136.76 294.333 137.16 295.453 137.64C296.653 138.12 298.093 138.36 299.773 138.36C301.213 138.36 302.573 138.16 303.853 137.76C305.213 137.36 306.533 136.4 307.813 134.88C309.093 133.44 310.333 131.12 311.533 127.92L290.653 68.52H308.653L316.693 96.24C317.413 98.88 318.013 101.4 318.493 103.8C319.053 106.2 319.453 108.16 319.693 109.68C319.933 111.2 320.053 111.96 320.053 111.96C320.053 111.96 320.133 111.2 320.293 109.68C320.533 108.16 320.853 106.2 321.253 103.8C321.653 101.4 322.173 98.88 322.813 96.24L330.373 68.52H346.693L324.973 129C323.693 132.84 322.133 136.32 320.293 139.44C318.453 142.64 316.093 145.16 313.213 147C310.413 148.92 306.813 149.88 302.413 149.88Z" fill="#F4E9E1"/>
<path d="M271.014 96.12V129H254.094V68.52H271.014V78.24C272.294 74.56 274.054 71.76 276.294 69.84C278.614 67.84 281.254 66.84 284.214 66.84C285.494 66.84 286.534 66.96 287.334 67.2C288.134 67.36 288.694 67.52 289.014 67.68V83.52C288.614 83.2 287.734 82.76 286.374 82.2C285.094 81.64 283.534 81.36 281.694 81.36C280.014 81.36 278.334 81.88 276.654 82.92C275.054 83.88 273.694 85.44 272.574 87.6C271.534 89.76 271.014 92.6 271.014 96.12Z" fill="#F4E9E1"/>
<path d="M191.912 98.76C191.912 95.08 192.552 91.64 193.832 88.44C195.112 85.16 196.712 82.2 198.632 79.56C200.552 76.84 202.512 74.56 204.512 72.72C206.592 70.64 208.872 69.16 211.352 68.28C213.912 67.32 216.512 66.84 219.152 66.84C221.712 66.84 224.232 67.32 226.712 68.28C229.272 69.16 231.632 70.64 233.792 72.72C235.792 74.56 237.712 76.84 239.552 79.56C241.472 82.2 243.032 85.16 244.232 88.44C245.512 91.64 246.152 95.08 246.152 98.76C246.152 102.36 245.512 105.8 244.232 109.08C243.032 112.28 241.472 115.2 239.552 117.84C237.712 120.48 235.792 122.76 233.792 124.68C231.632 126.68 229.272 128.16 226.712 129.12C224.232 130.16 221.712 130.68 219.152 130.68C216.592 130.68 214.032 130.16 211.472 129.12C208.912 128.16 206.592 126.68 204.512 124.68C202.512 122.76 200.552 120.48 198.632 117.84C196.712 115.2 195.112 112.28 193.832 109.08C192.552 105.8 191.912 102.36 191.912 98.76ZM209.192 98.76C209.192 102.76 209.672 106.36 210.632 109.56C211.672 112.68 212.752 114.92 213.872 116.28C214.752 117.32 215.632 118.08 216.512 118.56C217.472 119.04 218.352 119.28 219.152 119.28C221.072 119.28 222.792 118.28 224.312 116.28C225.672 114.68 226.752 112.36 227.552 109.32C228.432 106.28 228.872 102.76 228.872 98.76C228.872 94.76 228.392 91.28 227.432 88.32C226.552 85.28 225.512 82.96 224.312 81.36C223.512 80.16 222.672 79.36 221.792 78.96C220.912 78.48 220.032 78.24 219.152 78.24C218.272 78.24 217.392 78.48 216.512 78.96C215.632 79.36 214.752 80.16 213.872 81.36C212.672 82.96 211.592 85.28 210.632 88.32C209.672 91.28 209.192 94.76 209.192 98.76Z" fill="#F4E9E1"/>
<path d="M150.862 80.88V68.5201H160.342V55.8001L177.262 49.8V68.5201H189.382V80.88H177.262V107.52C177.262 109.2 177.382 110.96 177.622 112.8C177.942 114.56 178.582 116.08 179.542 117.36C180.502 118.56 181.902 119.16 183.742 119.16C185.182 119.16 186.302 118.96 187.102 118.56C187.902 118.08 188.582 117.64 189.142 117.24V129C188.582 129.32 187.662 129.68 186.382 130.08C185.102 130.48 183.102 130.68 180.382 130.68C176.062 130.68 172.422 129.56 169.462 127.32C166.502 125.08 164.222 122.12 162.622 118.44C161.102 114.76 160.342 110.8 160.342 106.56V80.88H150.862Z" fill="#F4E9E1"/>
<path d="M148.329 110.16C148.329 113.36 147.409 116.56 145.569 119.76C143.809 122.88 141.249 125.48 137.889 127.56C134.609 129.64 130.609 130.68 125.889 130.68C121.409 130.68 117.489 129.76 114.129 127.92C110.769 126.08 108.089 123.56 106.089 120.36C104.089 117.16 102.889 113.56 102.489 109.56H118.209C117.969 112.52 118.569 114.88 120.009 116.64C121.449 118.4 123.409 119.28 125.889 119.28C127.969 119.28 129.609 118.64 130.809 117.36C132.089 116 132.729 114.44 132.729 112.68C132.729 110.6 132.009 109 130.569 107.88C129.209 106.68 127.449 105.72 125.289 105C123.129 104.2 120.809 103.4 118.329 102.6C115.849 101.72 113.529 100.64 111.369 99.36C109.209 98.08 107.409 96.32 105.969 94.08C104.609 91.84 103.929 88.92 103.929 85.32C103.929 82.2 104.849 79.24 106.689 76.44C108.609 73.64 111.209 71.36 114.489 69.6C117.769 67.76 121.489 66.84 125.649 66.84C132.049 66.84 137.129 68.72 140.889 72.48C144.729 76.24 147.049 80.88 147.849 86.4H132.129C132.369 84.4 131.969 82.56 130.929 80.88C129.969 79.12 128.249 78.24 125.769 78.24C123.849 78.24 122.249 78.8 120.969 79.92C119.689 81.04 119.049 82.44 119.049 84.12C119.049 85.96 119.729 87.4 121.089 88.44C122.529 89.4 124.369 90.2 126.609 90.84C128.849 91.4 131.209 92.04 133.689 92.76C136.169 93.48 138.529 94.48 140.769 95.76C143.009 96.96 144.809 98.72 146.169 101.04C147.609 103.28 148.329 106.32 148.329 110.16Z" fill="#F4E9E1"/>
<path d="M77.9612 68.52H94.8812V129H77.9612V68.52ZM86.3612 61.56C83.4812 61.56 81.0812 60.6 79.1612 58.68C77.2412 56.76 76.2812 54.44 76.2812 51.72C76.2812 48.92 77.2412 46.6 79.1612 44.76C81.0812 42.84 83.4812 41.88 86.3612 41.88C89.1612 41.88 91.5212 42.84 93.4412 44.76C95.4412 46.6 96.4412 48.92 96.4412 51.72C96.4412 54.44 95.4412 56.76 93.4412 58.68C91.5212 60.6 89.1612 61.56 86.3612 61.56Z" fill="#F4E9E1"/>
<path d="M47.8228 45H65.7028V129H47.8228V91.8H18.1827V129H0.302734V45H18.1827V79.2H47.8228V45Z" fill="#F4E9E1"/>
<path d="M225.803 187V153.016H231.035V187H225.803ZM225.803 187V182.68H231.035V187H225.803ZM225.803 157.336V153.016H231.035V157.336H225.803Z" fill="#7C9DB4"/>
<path d="M207.788 187.384C206.06 187.384 204.556 187.08 203.276 186.472C202.028 185.864 201.052 185.032 200.348 183.976C199.676 182.888 199.34 181.688 199.34 180.376C199.34 177.944 200.188 176.088 201.884 174.808C203.612 173.528 206.348 172.68 210.092 172.264L215.612 171.736V175.576L210.332 176.248C208.988 176.376 207.884 176.6 207.02 176.92C206.156 177.24 205.532 177.656 205.148 178.168C204.764 178.68 204.572 179.336 204.572 180.136C204.572 181.16 204.94 181.96 205.676 182.536C206.412 183.08 207.404 183.352 208.652 183.352C209.9 183.352 211.004 183.032 211.964 182.392C212.924 181.752 213.676 180.904 214.22 179.848C214.764 178.792 215.036 177.624 215.036 176.344V171.16C215.036 170.2 214.812 169.384 214.364 168.712C213.948 168.04 213.356 167.528 212.588 167.176C211.852 166.824 210.956 166.648 209.9 166.648C208.94 166.648 208.092 166.808 207.356 167.128C206.62 167.448 206.012 167.944 205.532 168.616C205.084 169.288 204.796 170.12 204.668 171.112L199.628 170.344C199.916 168.776 200.524 167.4 201.452 166.216C202.38 165 203.564 164.072 205.004 163.432C206.476 162.76 208.108 162.424 209.9 162.424C211.948 162.424 213.74 162.792 215.276 163.528C216.844 164.264 218.06 165.336 218.924 166.744C219.82 168.12 220.268 169.8 220.268 171.784V187H215.036V183.496C214.684 184.2 214.14 184.856 213.404 185.464C212.7 186.04 211.852 186.504 210.86 186.856C209.9 187.208 208.876 187.384 207.788 187.384Z" fill="#7C9DB4"/>
<path d="M193.214 187.384C191.71 187.384 190.35 187.08 189.134 186.472C187.918 185.864 186.958 184.952 186.254 183.736C185.582 182.52 185.246 181.048 185.246 179.32V156.808H190.526V178.888C190.526 180.168 190.83 181.144 191.438 181.816C192.046 182.456 192.862 182.776 193.886 182.776C194.334 182.776 194.75 182.728 195.134 182.632C195.55 182.536 195.966 182.424 196.382 182.296L196.766 186.76C196.286 186.952 195.726 187.096 195.086 187.192C194.446 187.32 193.822 187.384 193.214 187.384ZM181.262 167.128V162.808H196.382V167.128H181.262Z" fill="#7C9DB4"/>
<path d="M166.506 187V162.808H171.738V166.504C172.282 165.48 172.954 164.68 173.754 164.104C174.586 163.528 175.434 163.112 176.298 162.856C177.194 162.568 178.01 162.424 178.746 162.424C179.066 162.424 179.322 162.44 179.514 162.472C179.738 162.472 179.914 162.488 180.042 162.52L179.706 167.656C179.578 167.592 179.386 167.544 179.13 167.512C178.874 167.48 178.602 167.464 178.314 167.464C177.386 167.464 176.522 167.672 175.722 168.088C174.954 168.472 174.266 169.096 173.658 169.96C173.082 170.792 172.618 171.864 172.266 173.176C171.914 174.488 171.738 176.056 171.738 177.88V187H166.506Z" fill="#7C9DB4"/>
<path d="M149.563 187.384C147.163 187.384 145.019 186.856 143.131 185.8C141.243 184.712 139.755 183.24 138.667 181.384C137.611 179.496 137.083 177.336 137.083 174.904C137.083 173.048 137.387 171.368 137.995 169.864C138.603 168.36 139.467 167.048 140.587 165.928C141.707 164.808 143.019 163.944 144.523 163.336C146.059 162.728 147.739 162.424 149.563 162.424C151.995 162.424 154.139 162.952 155.995 164.008C157.883 165.064 159.355 166.536 160.411 168.424C161.499 170.28 162.043 172.44 162.043 174.904C162.043 176.728 161.739 178.408 161.131 179.944C160.523 181.448 159.659 182.76 158.539 183.88C157.419 185 156.091 185.864 154.555 186.472C153.051 187.08 151.387 187.384 149.563 187.384ZM149.563 182.872C150.619 182.872 151.579 182.68 152.443 182.296C153.339 181.88 154.091 181.32 154.699 180.616C155.339 179.912 155.835 179.08 156.187 178.12C156.539 177.128 156.715 176.04 156.715 174.856C156.715 173.288 156.411 171.912 155.803 170.728C155.195 169.544 154.347 168.616 153.259 167.944C152.203 167.272 150.971 166.936 149.563 166.936C148.507 166.936 147.547 167.128 146.683 167.512C145.819 167.896 145.067 168.44 144.427 169.144C143.787 169.848 143.291 170.696 142.939 171.688C142.587 172.648 142.411 173.704 142.411 174.856C142.411 176.456 142.715 177.864 143.323 179.08C143.931 180.264 144.779 181.192 145.867 181.864C146.955 182.536 148.187 182.872 149.563 182.872Z" fill="#7C9DB4"/>
<path d="M108.943 195.736V162.808H114.223V166.168C114.671 165.432 115.295 164.792 116.095 164.248C116.895 163.672 117.807 163.224 118.831 162.904C119.887 162.584 120.975 162.424 122.095 162.424C124.495 162.424 126.575 162.936 128.335 163.96C130.095 164.984 131.471 166.44 132.463 168.328C133.455 170.184 133.951 172.376 133.951 174.904C133.951 176.792 133.663 178.504 133.087 180.04C132.543 181.576 131.743 182.888 130.687 183.976C129.663 185.064 128.415 185.912 126.943 186.52C125.503 187.096 123.887 187.384 122.095 187.384C120.975 187.384 119.903 187.224 118.879 186.904C117.855 186.584 116.927 186.136 116.095 185.56C115.295 184.984 114.671 184.328 114.223 183.592V195.736H108.943ZM121.375 182.872C122.783 182.872 124.031 182.536 125.119 181.864C126.207 181.192 127.055 180.264 127.663 179.08C128.271 177.864 128.575 176.472 128.575 174.904C128.575 173.336 128.271 171.96 127.663 170.776C127.055 169.56 126.207 168.616 125.119 167.944C124.031 167.272 122.783 166.936 121.375 166.936C120.351 166.936 119.391 167.128 118.495 167.512C117.631 167.896 116.879 168.44 116.239 169.144C115.599 169.848 115.103 170.696 114.751 171.688C114.399 172.648 114.223 173.72 114.223 174.904C114.223 176.472 114.527 177.848 115.135 179.032C115.743 180.216 116.591 181.16 117.679 181.864C118.767 182.536 119.999 182.872 121.375 182.872Z" fill="#7C9DB4"/>
<path d="M194.823 34.3839C192.391 34.3839 190.247 33.8559 188.391 32.7999C186.567 31.7119 185.143 30.2399 184.119 28.3839C183.095 26.4959 182.583 24.3359 182.583 21.9039C182.583 20.0799 182.871 18.4159 183.447 16.9119C184.055 15.3759 184.887 14.0479 185.943 12.9279C187.031 11.8079 188.311 10.9439 189.783 10.3359C191.255 9.72795 192.871 9.42395 194.631 9.42395C196.551 9.42395 198.263 9.77595 199.767 10.4799C201.303 11.1519 202.583 12.112 203.607 13.36C204.631 14.576 205.351 16 205.767 17.632C206.215 19.264 206.311 21.0079 206.055 22.8639H186.183V18.8799H200.631C200.599 17.792 200.327 16.8639 199.815 16.0959C199.303 15.2959 198.599 14.6879 197.703 14.2719C196.807 13.8559 195.783 13.6479 194.631 13.6479C193.607 13.6479 192.663 13.8239 191.799 14.1759C190.967 14.5279 190.247 15.0559 189.639 15.7599C189.063 16.4639 188.615 17.3279 188.295 18.3519C187.975 19.3439 187.815 20.4799 187.815 21.7599C187.815 23.3919 188.103 24.8319 188.679 26.0799C189.255 27.2959 190.071 28.2559 191.127 28.9599C192.183 29.6319 193.415 29.9679 194.823 29.9679C195.815 29.9679 196.743 29.7919 197.607 29.4399C198.471 29.0559 199.191 28.5599 199.767 27.952C200.375 27.3119 200.775 26.608 200.967 25.84L205.863 27.136C205.479 28.576 204.759 29.84 203.703 30.928C202.679 32.016 201.399 32.864 199.863 33.472C198.359 34.08 196.679 34.3839 194.823 34.3839Z" fill="#7C9DB4"/>
<path d="M155.99 34V0.0159912H161.222V13.408C161.702 12.704 162.326 12.048 163.094 11.44C163.862 10.832 164.774 10.352 165.83 9.99999C166.918 9.61599 168.102 9.42399 169.382 9.42399C171.142 9.42399 172.694 9.77599 174.038 10.48C175.382 11.184 176.438 12.192 177.206 13.504C178.006 14.816 178.406 16.416 178.406 18.304V34H173.126V19.456C173.126 18.304 172.902 17.328 172.454 16.528C172.038 15.696 171.446 15.072 170.678 14.656C169.942 14.24 169.062 14.032 168.038 14.032C166.63 14.032 165.414 14.416 164.39 15.184C163.398 15.952 162.614 17.04 162.038 18.448C161.494 19.856 161.222 21.552 161.222 23.536V34H155.99Z" fill="#7C9DB4"/>
<path d="M148.761 34.384C147.257 34.384 145.897 34.08 144.681 33.472C143.465 32.864 142.505 31.952 141.801 30.736C141.129 29.52 140.793 28.048 140.793 26.32V3.80798H146.073V25.888C146.073 27.168 146.377 28.144 146.985 28.816C147.593 29.456 148.409 29.776 149.433 29.776C149.881 29.776 150.297 29.728 150.681 29.632C151.097 29.536 151.513 29.424 151.929 29.296L152.313 33.76C151.833 33.952 151.273 34.096 150.633 34.192C149.993 34.32 149.369 34.384 148.761 34.384ZM136.809 14.128V9.80798H151.929V14.128H136.809Z" fill="#7C9DB4"/>
</svg>