<svg width="208" height="36" viewBox="0 0 208 36" fill="none" xmlns="http://www.w3.org/2000/svg">
<path d="M205.69 26.2556V12.5383H207.805V26.2556H205.69ZM205.69 26.2556V24.5118H207.805V26.2556H205.69ZM205.69 14.282V12.5383H207.805V14.282H205.69Z" fill="#7C9DB4"/>
<path d="M198.409 26.4105C197.71 26.4105 197.102 26.2878 196.585 26.0424C196.081 25.797 195.686 25.4611 195.402 25.0349C195.13 24.5957 194.994 24.1114 194.994 23.5818C194.994 22.6002 195.337 21.851 196.022 21.3343C196.721 20.8177 197.827 20.4754 199.34 20.3075L201.571 20.0944V21.6443L199.437 21.9156C198.894 21.9673 198.447 22.0577 198.098 22.1868C197.749 22.316 197.497 22.4839 197.342 22.6906C197.186 22.8972 197.109 23.162 197.109 23.4849C197.109 23.8983 197.257 24.2212 197.555 24.4537C197.852 24.6732 198.253 24.783 198.758 24.783C199.262 24.783 199.708 24.6539 200.096 24.3955C200.484 24.1372 200.788 23.7949 201.008 23.3687C201.228 22.9424 201.338 22.471 201.338 21.9543V19.8619C201.338 19.4744 201.247 19.145 201.066 18.8738C200.898 18.6025 200.659 18.3959 200.349 18.2538C200.051 18.1117 199.689 18.0407 199.262 18.0407C198.874 18.0407 198.531 18.1052 198.234 18.2344C197.936 18.3636 197.691 18.5638 197.497 18.835C197.316 19.1063 197.199 19.4421 197.148 19.8425L195.111 19.5325C195.227 18.8996 195.473 18.3442 195.848 17.8663C196.223 17.3755 196.701 17.0009 197.283 16.7426C197.878 16.4713 198.538 16.3357 199.262 16.3357C200.09 16.3357 200.814 16.4842 201.435 16.7813C202.069 17.0784 202.56 17.5111 202.909 18.0794C203.272 18.6348 203.453 19.3129 203.453 20.1137V26.2555H201.338V24.8412C201.196 25.1253 200.976 25.3901 200.678 25.6355C200.394 25.868 200.051 26.0553 199.65 26.1974C199.262 26.3395 198.848 26.4105 198.409 26.4105Z" fill="#7C9DB4"/>
<path d="M192.519 26.4105C191.911 26.4105 191.361 26.2878 190.87 26.0424C190.378 25.797 189.99 25.4288 189.706 24.938C189.434 24.4472 189.298 23.853 189.298 23.1555V14.0688H191.432V22.9812C191.432 23.4978 191.555 23.8918 191.801 24.163C192.047 24.4214 192.376 24.5505 192.79 24.5505C192.971 24.5505 193.139 24.5311 193.295 24.4924C193.463 24.4536 193.631 24.4084 193.799 24.3568L193.954 26.1586C193.76 26.2361 193.534 26.2942 193.275 26.333C193.017 26.3846 192.764 26.4105 192.519 26.4105ZM187.688 18.2344V16.4907H193.799V18.2344H187.688Z" fill="#7C9DB4"/>
<path d="M181.724 26.2555V16.4907H183.839V17.9825C184.059 17.5692 184.33 17.2463 184.654 17.0138C184.99 16.7813 185.333 16.6134 185.682 16.5101C186.044 16.3938 186.374 16.3357 186.671 16.3357C186.8 16.3357 186.904 16.3422 186.982 16.3551C187.072 16.3551 187.143 16.3615 187.195 16.3744L187.059 18.4475C187.007 18.4217 186.93 18.4023 186.826 18.3894C186.723 18.3765 186.613 18.37 186.497 18.37C186.121 18.37 185.772 18.454 185.449 18.6219C185.139 18.7769 184.86 19.0288 184.615 19.3775C184.382 19.7133 184.194 20.146 184.052 20.6756C183.91 21.2052 183.839 21.8381 183.839 22.5743V26.2555H181.724Z" fill="#7C9DB4"/>
<path d="M174.876 26.4105C173.906 26.4105 173.04 26.1974 172.276 25.7711C171.513 25.332 170.912 24.7378 170.472 23.9887C170.045 23.2266 169.832 22.3547 169.832 21.3731C169.832 20.6239 169.955 19.9458 170.201 19.3388C170.446 18.7317 170.796 18.2021 171.248 17.75C171.701 17.298 172.231 16.9492 172.839 16.7038C173.46 16.4584 174.139 16.3357 174.876 16.3357C175.859 16.3357 176.726 16.5488 177.476 16.9751C178.239 17.4013 178.834 17.9955 179.26 18.7575C179.7 19.5067 179.92 20.3785 179.92 21.3731C179.92 22.1093 179.797 22.7874 179.551 23.4074C179.306 24.0145 178.957 24.5441 178.504 24.9961C178.051 25.4482 177.514 25.797 176.894 26.0424C176.286 26.2878 175.613 26.4105 174.876 26.4105ZM174.876 24.5893C175.303 24.5893 175.691 24.5118 176.04 24.3568C176.402 24.1889 176.706 23.9628 176.952 23.6787C177.211 23.3945 177.411 23.0587 177.553 22.6712C177.696 22.2708 177.767 21.8316 177.767 21.3537C177.767 20.7208 177.644 20.1654 177.398 19.6875C177.152 19.2096 176.81 18.835 176.37 18.5638C175.943 18.2925 175.445 18.1569 174.876 18.1569C174.449 18.1569 174.061 18.2344 173.712 18.3894C173.363 18.5444 173.059 18.764 172.8 19.0481C172.542 19.3323 172.341 19.6746 172.199 20.075C172.057 20.4625 171.985 20.8887 171.985 21.3537C171.985 21.9995 172.108 22.5679 172.354 23.0587C172.6 23.5366 172.943 23.9112 173.382 24.1824C173.822 24.4537 174.32 24.5893 174.876 24.5893Z" fill="#7C9DB4"/>
<path d="M158.459 29.7817V16.4907H160.593V17.8469C160.774 17.5498 161.026 17.2915 161.35 17.0719C161.673 16.8394 162.042 16.6586 162.455 16.5294C162.882 16.4003 163.322 16.3357 163.775 16.3357C164.745 16.3357 165.585 16.5424 166.297 16.9557C167.008 17.369 167.564 17.9567 167.965 18.7188C168.366 19.4679 168.566 20.3527 168.566 21.3731C168.566 22.1352 168.45 22.8262 168.217 23.4462C167.997 24.0662 167.674 24.5957 167.247 25.0349C166.833 25.4741 166.329 25.8163 165.734 26.0618C165.152 26.2942 164.499 26.4105 163.775 26.4105C163.322 26.4105 162.889 26.3459 162.475 26.2168C162.061 26.0876 161.686 25.9068 161.35 25.6743C161.026 25.4418 160.774 25.177 160.593 24.8799V29.7817H158.459ZM163.484 24.5893C164.053 24.5893 164.557 24.4537 164.997 24.1824C165.437 23.9112 165.779 23.5366 166.025 23.0587C166.271 22.5679 166.394 22.006 166.394 21.3731C166.394 20.7402 166.271 20.1848 166.025 19.7069C165.779 19.2161 165.437 18.835 164.997 18.5638C164.557 18.2925 164.053 18.1569 163.484 18.1569C163.07 18.1569 162.682 18.2344 162.32 18.3894C161.97 18.5444 161.666 18.764 161.408 19.0481C161.149 19.3323 160.949 19.6746 160.806 20.075C160.664 20.4625 160.593 20.8952 160.593 21.3731C160.593 22.006 160.716 22.5614 160.962 23.0393C161.207 23.5172 161.55 23.8983 161.99 24.1824C162.43 24.4537 162.927 24.5893 163.484 24.5893Z" fill="#7C9DB4"/>
<path d="M137.41 35.4908C136.62 35.4908 135.949 35.412 135.396 35.2542C134.869 35.1228 134.501 35.0176 134.29 34.9387V31.0742C134.475 31.1794 134.751 31.3108 135.119 31.4685C135.514 31.6263 135.988 31.7051 136.541 31.7051C137.015 31.7051 137.462 31.6394 137.884 31.508C138.331 31.3765 138.765 31.061 139.187 30.5615C139.608 30.0883 140.016 29.3259 140.411 28.2744L133.54 8.75439H139.463L142.109 17.8637C142.345 18.7313 142.543 19.5594 142.701 20.3481C142.885 21.1368 143.017 21.7808 143.096 22.2804C143.175 22.7799 143.214 23.0296 143.214 23.0296C143.214 23.0296 143.24 22.7799 143.293 22.2804C143.372 21.7808 143.477 21.1368 143.609 20.3481C143.741 19.5594 143.912 18.7313 144.122 17.8637L146.61 8.75439H151.98L144.833 28.6293C144.412 29.8912 143.899 31.0348 143.293 32.06C142.688 33.1116 141.911 33.9397 140.963 34.5444C140.042 35.1754 138.858 35.4908 137.41 35.4908Z" fill="#F4E9E1"/>
<path d="M127.078 17.8241V28.6291H121.51V8.75423H127.078V11.9484C127.499 10.7391 128.078 9.81895 128.815 9.188C129.579 8.53077 130.447 8.20215 131.421 8.20215C131.842 8.20215 132.185 8.24158 132.448 8.32045C132.711 8.37303 132.895 8.42561 133.001 8.47819V13.6835C132.869 13.5784 132.58 13.4338 132.132 13.2497C131.711 13.0657 131.198 12.9737 130.592 12.9737C130.039 12.9737 129.486 13.1446 128.934 13.4863C128.407 13.8018 127.96 14.3145 127.591 15.0243C127.249 15.7341 127.078 16.6674 127.078 17.8241Z" fill="#F4E9E1"/>
<path d="M101.049 18.6917C101.049 17.4823 101.26 16.3519 101.681 15.3003C102.102 14.2224 102.629 13.2497 103.261 12.3822C103.892 11.4883 104.537 10.7391 105.195 10.1344C105.88 9.4509 106.63 8.96454 107.446 8.67536C108.288 8.35988 109.144 8.20215 110.013 8.20215C110.855 8.20215 111.684 8.35988 112.5 8.67536C113.343 8.96454 114.119 9.4509 114.83 10.1344C115.488 10.7391 116.12 11.4883 116.725 12.3822C117.357 13.2497 117.87 14.2224 118.265 15.3003C118.686 16.3519 118.897 17.4823 118.897 18.6917C118.897 19.8747 118.686 21.0051 118.265 22.083C117.87 23.1346 117.357 24.0942 116.725 24.9617C116.12 25.8293 115.488 26.5785 114.83 27.2095C114.119 27.8667 113.343 28.3531 112.5 28.6685C111.684 29.0103 110.855 29.1812 110.013 29.1812C109.17 29.1812 108.328 29.0103 107.486 28.6685C106.643 28.3531 105.88 27.8667 105.195 27.2095C104.537 26.5785 103.892 25.8293 103.261 24.9617C102.629 24.0942 102.102 23.1346 101.681 22.083C101.26 21.0051 101.049 19.8747 101.049 18.6917ZM106.735 18.6917C106.735 20.0061 106.893 21.1892 107.209 22.2408C107.551 23.266 107.907 24.0021 108.275 24.4491C108.565 24.7908 108.854 25.0406 109.144 25.1983C109.46 25.3561 109.749 25.4349 110.013 25.4349C110.644 25.4349 111.21 25.1063 111.711 24.4491C112.158 23.9233 112.513 23.1609 112.777 22.1619C113.066 21.1629 113.211 20.0061 113.211 18.6917C113.211 17.3772 113.053 16.2336 112.737 15.2609C112.448 14.2619 112.105 13.4995 111.711 12.9737C111.447 12.5794 111.171 12.3165 110.881 12.185C110.592 12.0273 110.302 11.9484 110.013 11.9484C109.723 11.9484 109.434 12.0273 109.144 12.185C108.854 12.3165 108.565 12.5794 108.275 12.9737C107.88 13.4995 107.525 14.2619 107.209 15.2609C106.893 16.2336 106.735 17.3772 106.735 18.6917Z" fill="#F4E9E1"/>
<path d="M87.542 12.816V8.75429H90.6614V4.57425L96.2289 2.60254V8.75429H100.217V12.816H96.2289V21.5704C96.2289 22.1225 96.2684 22.7009 96.3474 23.3055C96.4527 23.8839 96.6633 24.3834 96.9792 24.804C97.2951 25.1984 97.7557 25.3955 98.3612 25.3955C98.835 25.3955 99.2036 25.3298 99.4668 25.1984C99.73 25.0406 99.9538 24.896 100.138 24.7646V28.6292C99.9538 28.7343 99.6511 28.8526 99.2299 28.9841C98.8087 29.1155 98.1506 29.1812 97.2556 29.1812C95.8341 29.1812 94.6363 28.8132 93.6623 28.0771C92.6883 27.341 91.9381 26.3683 91.4116 25.1589C90.9115 23.9496 90.6614 22.6483 90.6614 21.255V12.816H87.542Z" fill="#F4E9E1"/>
<path d="M86.7082 22.4379C86.7082 23.4895 86.4055 24.5411 85.8 25.5927C85.2209 26.618 84.3785 27.4724 83.2729 28.1559C82.1936 28.8394 80.8774 29.1812 79.3243 29.1812C77.8502 29.1812 76.5603 28.8789 75.4547 28.2742C74.3491 27.6695 73.4672 26.8414 72.8091 25.7898C72.151 24.7383 71.7561 23.5552 71.6245 22.2408H76.7972C76.7182 23.2135 76.9157 23.989 77.3895 24.5674C77.8633 25.1457 78.5083 25.4349 79.3243 25.4349C80.0087 25.4349 80.5484 25.2246 80.9432 24.804C81.3644 24.3571 81.575 23.8444 81.575 23.266C81.575 22.5825 81.3381 22.0567 80.8643 21.6887C80.4168 21.2943 79.8376 20.9789 79.1269 20.7422C78.4161 20.4794 77.6527 20.2165 76.8367 19.9536C76.0206 19.6644 75.2572 19.3095 74.5465 18.8888C73.8357 18.4682 73.2435 17.8898 72.7696 17.1537C72.3221 16.4176 72.0983 15.4581 72.0983 14.275C72.0983 13.2497 72.4011 12.277 73.0065 11.3569C73.6383 10.4368 74.4938 9.6875 75.5731 9.10913C76.6524 8.50448 77.8765 8.20215 79.2453 8.20215C81.3513 8.20215 83.0228 8.81995 84.2601 10.0556C85.5236 11.2912 86.287 12.816 86.5503 14.6299H81.3776C81.4566 13.9727 81.3249 13.368 80.9827 12.816C80.6668 12.2376 80.1009 11.9484 79.2848 11.9484C78.653 11.9484 78.1266 12.1324 77.7054 12.5005C77.2842 12.8685 77.0736 13.3286 77.0736 13.8807C77.0736 14.4853 77.2974 14.9586 77.7449 15.3003C78.2187 15.6158 78.8241 15.8787 79.5612 16.089C80.2983 16.273 81.0749 16.4833 81.8909 16.72C82.707 16.9566 83.4835 17.2852 84.2206 17.7058C84.9577 18.1002 85.55 18.6785 85.9975 19.4409C86.4713 20.177 86.7082 21.176 86.7082 22.4379Z" fill="#F4E9E1"/>
<path d="M63.5533 8.75441H69.1208V28.6293H63.5533V8.75441ZM66.3173 6.46722C65.3696 6.46722 64.5799 6.15175 63.9481 5.5208C63.3164 4.88985 63.0005 4.12745 63.0005 3.23361C63.0005 2.31348 63.3164 1.55108 63.9481 0.946422C64.5799 0.315474 65.3696 0 66.3173 0C67.2387 0 68.0152 0.315474 68.647 0.946422C69.3051 1.55108 69.6341 2.31348 69.6341 3.23361C69.6341 4.12745 69.3051 4.88985 68.647 5.5208C68.0152 6.15175 67.2387 6.46722 66.3173 6.46722Z" fill="#F4E9E1"/>
<path d="M53.6365 1.02515H59.5199V28.6291H53.6365V16.4045H43.8834V28.6291H38V1.02515H43.8834V12.2639H53.6365V1.02515Z" fill="#F4E9E1"/>
<path d="M24.2849 26.4105C23.302 26.4105 22.4354 26.1974 21.6853 25.7711C20.9481 25.332 20.3726 24.7378 19.9587 23.9887C19.5448 23.2266 19.3379 22.3547 19.3379 21.3731C19.3379 20.6369 19.4543 19.9652 19.6871 19.3581C19.9328 18.7381 20.2691 18.2021 20.6959 17.75C21.1356 17.298 21.653 16.9492 22.2479 16.7038C22.8428 16.4584 23.496 16.3357 24.2073 16.3357C24.9833 16.3357 25.6752 16.4778 26.2831 16.7619C26.9039 17.0332 27.4213 17.4207 27.8351 17.9244C28.249 18.4152 28.54 18.99 28.7081 19.6488C28.8892 20.3075 28.928 21.0114 28.8245 21.7606H20.7929V20.1525H26.6323C26.6194 19.7133 26.5095 19.3388 26.3025 19.0288C26.0956 18.7059 25.8111 18.4604 25.4489 18.2925C25.0868 18.1246 24.6729 18.0407 24.2073 18.0407C23.7934 18.0407 23.4119 18.1117 23.0627 18.2538C22.7264 18.3959 22.4354 18.609 22.1897 18.8931C21.9569 19.1773 21.7758 19.526 21.6465 19.9394C21.5172 20.3398 21.4525 20.7983 21.4525 21.315C21.4525 21.9737 21.5689 22.5549 21.8017 23.0587C22.0345 23.5495 22.3643 23.937 22.7911 24.2212C23.2179 24.4924 23.7158 24.628 24.2849 24.628C24.6858 24.628 25.0609 24.557 25.4101 24.4149C25.7593 24.2599 26.0503 24.0597 26.2831 23.8143C26.5289 23.556 26.6905 23.2718 26.7681 22.9618L28.7469 23.4849C28.5917 24.0662 28.3007 24.5764 27.8739 25.0155C27.4601 25.4547 26.9427 25.797 26.3219 26.0424C25.7141 26.2878 25.035 26.4105 24.2849 26.4105Z" fill="#7C9DB4"/>
<path d="M8.58984 26.2556V12.5383H10.7045V17.9438C10.8985 17.6597 11.1507 17.3949 11.4611 17.1495C11.7715 16.9041 12.1401 16.7103 12.5669 16.5683C13.0066 16.4133 13.4851 16.3358 14.0025 16.3358C14.7138 16.3358 15.3411 16.4778 15.8843 16.762C16.4275 17.0462 16.8543 17.453 17.1647 17.9826C17.488 18.5122 17.6497 19.158 17.6497 19.9201V26.2556H15.5157V20.3851C15.5157 19.9201 15.4251 19.5261 15.2441 19.2032C15.0759 18.8674 14.8367 18.6155 14.5263 18.4476C14.2288 18.2797 13.8731 18.1957 13.4593 18.1957C12.8902 18.1957 12.3987 18.3507 11.9849 18.6607C11.5839 18.9707 11.2671 19.4099 11.0343 19.9782C10.8144 20.5465 10.7045 21.2311 10.7045 22.0319V26.2556H8.58984Z" fill="#7C9DB4"/>
<path d="M5.66802 26.4105C5.06015 26.4105 4.51048 26.2878 4.01901 26.0424C3.52754 25.797 3.13954 25.4288 2.855 24.938C2.5834 24.4472 2.4476 23.853 2.4476 23.1555V14.0688H4.58161V22.9812C4.58161 23.4978 4.70449 23.8918 4.95022 24.163C5.19595 24.4214 5.52575 24.5505 5.93962 24.5505C6.12069 24.5505 6.28882 24.5311 6.44402 24.4924C6.61215 24.4536 6.78029 24.4084 6.94843 24.3568L7.10363 26.1586C6.90963 26.2361 6.68329 26.2942 6.42462 26.333C6.16595 26.3846 5.91376 26.4105 5.66802 26.4105ZM0.837402 18.2344V16.4907H6.94843V18.2344H0.837402Z" fill="#7C9DB4"/>
</svg>
